<svg xmlns="http://www.w3.org/2000/svg" viewBox="0 0 128 128" role="img" aria-label="BC logo">
  <defs>
    <linearGradient id="g" x1="0" y1="0" x2="1" y2="1">
      <stop offset="0%" stop-color="#7f8cff" />
      <stop offset="100%" stop-color="#45d6ff" />
    </linearGradient>
  </defs>
  <rect width="128" height="128" rx="26" fill="#0b1020" />
  <path d="M29 28h31c14 0 22 7 22 18 0 8-4 13-11 15 10 2 16 9 16 19 0 13-9 22-25 22H29V28zm16 14v15h13c5 0 8-3 8-7s-3-8-8-8H45zm0 29v17h16c6 0 10-3 10-8s-4-9-10-9H45z" fill="url(#g)"/>
</svg>
